<svg width="2334" height="588" viewBox="0 0 2334 588" fill="none" xmlns="http://www.w3.org/2000/svg">
<path d="M2343 5.5V585L2324.94 574.89C2313.67 568.574 2299.72 569.508 2289.39 577.272L2288.09 578.25C2277.24 586.396 2262.32 586.396 2251.48 578.25V578.25C2240.63 570.104 2225.71 570.104 2214.87 578.25V578.25C2204.02 586.396 2189.1 586.396 2178.26 578.25V578.25C2167.41 570.104 2152.49 570.104 2141.65 578.25V578.25C2130.8 586.396 2115.88 586.396 2105.04 578.25V578.25C2094.2 570.104 2079.27 570.104 2068.43 578.25V578.25C2057.59 586.396 2042.66 586.396 2031.82 578.25V578.25C2020.98 570.104 2006.05 570.104 1995.21 578.25V578.25C1984.37 586.396 1969.45 586.396 1958.6 578.25V578.25C1947.76 570.104 1932.84 570.104 1921.99 578.25V578.25C1911.15 586.396 1896.23 586.396 1885.38 578.25V578.25C1874.54 570.104 1859.62 570.104 1848.77 578.25V578.25C1837.93 586.396 1823.01 586.396 1812.16 578.25V578.25C1801.32 570.104 1786.4 570.104 1775.55 578.25V578.25C1764.71 586.396 1749.79 586.396 1738.95 578.25V578.25C1728.1 570.104 1713.18 570.104 1702.34 578.25V578.25C1691.49 586.396 1676.57 586.396 1665.73 578.25V578.25C1654.88 570.104 1639.96 570.104 1629.12 578.25V578.25C1618.27 586.396 1603.35 586.396 1592.51 578.25V578.25C1581.66 570.104 1566.74 570.104 1555.9 578.25V578.25C1545.05 586.396 1530.13 586.396 1519.29 578.25V578.25C1508.45 570.104 1493.52 570.104 1482.68 578.25V578.25C1471.84 586.396 1456.91 586.396 1446.07 578.25V578.25C1435.23 570.104 1420.3 570.104 1409.46 578.25V578.25C1398.62 586.396 1383.7 586.396 1372.85 578.25V578.25C1362.01 570.104 1347.09 570.104 1336.24 578.25V578.25C1325.4 586.396 1310.48 586.396 1299.63 578.25V578.25C1288.79 570.104 1273.87 570.104 1263.02 578.25V578.25C1252.18 586.396 1237.26 586.396 1226.41 578.25V578.25C1215.57 570.104 1200.65 570.104 1189.8 578.25V578.25C1178.96 586.396 1164.04 586.396 1153.2 578.25V578.25C1142.35 570.104 1127.43 570.104 1116.59 578.25V578.25C1105.74 586.396 1090.82 586.396 1079.98 578.25V578.25C1069.13 570.104 1054.21 570.104 1043.37 578.25V578.25C1032.52 586.396 1017.6 586.396 1006.76 578.25V578.25C995.914 570.104 980.984 570.11 970.141 578.256V578.256C959.302 586.397 944.364 586.4 933.512 578.277V578.277C922.622 570.124 907.577 570.178 896.713 578.366V578.366C885.983 586.454 871.187 586.685 860.254 578.872L857.896 577.187C847.382 569.674 833.165 570.024 823.033 578.045V578.045C812.658 586.259 798.039 586.408 787.498 578.409L787.004 578.034C776.44 570.016 761.849 569.945 751.207 577.858L749.983 578.768C739.511 586.555 725.093 586.26 714.948 578.05V578.05C705.034 570.028 691.005 569.545 680.562 576.864L676.92 579.417C666.285 586.872 652.004 586.405 641.878 578.272V578.272C631.727 570.118 617.403 569.671 606.764 577.176L604.141 579.026C593.183 586.757 578.486 586.525 567.777 578.453L567.295 578.089C556.614 570.039 541.899 570.015 531.192 578.03L530.365 578.649C519.869 586.507 505.385 586.26 495.163 578.049V578.049C485.176 570.027 471.084 569.587 460.617 576.971L458.166 578.7C446.862 586.675 431.763 586.675 420.459 578.7L417.947 576.928C407.516 569.57 393.473 570.008 383.52 578.002V578.002C373.279 586.229 358.753 586.428 348.289 578.487L347.626 577.984C337.101 569.996 322.564 569.925 311.961 577.809L311.176 578.392C300.327 586.459 285.371 586.344 274.575 578.206V578.206C263.855 570.126 248.997 570.035 238.25 578.08L237.593 578.572C227.021 586.487 212.444 586.29 202.089 578.092V578.092C191.922 570.043 177.656 569.692 167.105 577.231L162.559 580.48C153.321 587.081 140.627 585.851 132.828 577.599V577.599C125.576 569.926 113.997 568.257 104.874 573.569L90.8634 581.726C80.31 587.871 67.0173 586.626 57.7881 578.629V578.629C48.1393 570.268 34.1138 569.327 23.434 576.322L20.4913 578.25L9.99573 585.125L8.81794 585.897C6.21614 587.601 3.03523 588.179 0 587.5V587.5V27V8.45501C0 4.19965 3.44965 0.75 7.70501 0.75V0.75C9.50805 0.75 11.254 1.38232 12.6389 2.53689L20.991 9.5L22.8971 11.1278C33.2495 19.969 48.7547 18.9797 57.8996 8.89449V8.89449C66.5941 -0.694115 81.1424 -2.12816 91.5417 5.57834L103.815 14.6735C113.004 21.4831 125.973 19.5607 132.791 10.3781V10.3781C140.098 0.537128 154.304 -0.84558 163.372 7.40151L167.053 10.7497C177.045 19.8368 192.496 19.3675 202.009 9.78134V9.78134C211.77 -0.0536019 227.682 -0.353321 237.714 9.20481L238.249 9.71501C248.398 19.3843 264.453 19.266 274.568 9.56213V9.56213C284.765 -0.220046 300.941 -0.36646 311.205 9.3462L311.917 10.0205C321.954 19.5188 337.688 19.4383 347.627 9.83784L348.165 9.31747C358.085 -0.264269 373.88 -0.0401845 383.524 9.81911V9.81911C392.919 19.4244 408.215 19.9203 418.212 10.944L420.454 8.93121C431.182 -0.700128 447.443 -0.700131 458.171 8.93121L460.35 10.888C470.383 19.8957 485.732 19.398 495.16 9.75924V9.75924C504.791 -0.0864105 520.546 -0.363847 530.517 9.13663L531.191 9.7784C541.302 19.4123 557.203 19.3852 567.282 9.71688L567.778 9.2404C577.913 -0.482147 593.831 -0.745025 604.281 8.63757L606.489 10.6198C616.689 19.7774 632.293 19.2714 641.878 9.47219V9.47219C651.441 -0.304528 667.002 -0.833833 677.207 8.27043L680.267 11.0006C690.293 19.9441 705.586 19.3958 714.945 9.7574V9.7574C724.503 -0.0864419 740.199 -0.418162 750.165 9.01305L751.163 9.95775C761.237 19.4911 777.029 19.4104 787.005 9.77445L787.406 9.38658C797.387 -0.253592 813.26 -0.0858915 823.035 9.76296V9.76296C832.601 19.4018 848.061 19.7974 858.107 10.6605L860.141 8.81088C870.547 -0.653097 886.57 -0.378428 896.72 9.35906V9.35906C906.97 19.192 923.225 19.2674 933.509 9.46946V9.46946C943.761 -0.298995 959.905 -0.293351 970.141 9.49254V9.49254C980.38 19.2822 996.518 19.2896 1006.76 9.5V9.5C1017 -0.289619 1033.13 -0.289619 1043.37 9.5V9.5C1053.61 19.2896 1069.74 19.2896 1079.98 9.5V9.5C1090.22 -0.289619 1106.35 -0.289619 1116.59 9.5V9.5C1126.83 19.2896 1142.96 19.2896 1153.2 9.5V9.5C1163.44 -0.289619 1179.56 -0.289619 1189.8 9.5V9.5C1200.04 19.2896 1216.17 19.2896 1226.41 9.5V9.5C1236.65 -0.289619 1252.78 -0.289619 1263.02 9.5V9.5C1273.26 19.2896 1289.39 19.2896 1299.63 9.5V9.5C1309.87 -0.289619 1326 -0.289619 1336.24 9.5V9.5C1346.48 19.2896 1362.61 19.2896 1372.85 9.5V9.5C1383.09 -0.289619 1399.22 -0.289619 1409.46 9.5V9.5C1419.7 19.2896 1435.83 19.2896 1446.07 9.5V9.5C1456.31 -0.289619 1472.44 -0.289619 1482.68 9.5V9.5C1492.92 19.2896 1509.05 19.2896 1519.29 9.5V9.5C1529.53 -0.289619 1545.66 -0.289619 1555.9 9.5V9.5C1566.14 19.2896 1582.27 19.2896 1592.51 9.5V9.5C1602.75 -0.289619 1618.88 -0.289619 1629.12 9.5V9.5C1639.36 19.2896 1655.49 19.2896 1665.73 9.5V9.5C1675.97 -0.289619 1692.1 -0.289619 1702.34 9.5V9.5C1712.58 19.2896 1728.71 19.2896 1738.95 9.5V9.5C1749.19 -0.289619 1765.31 -0.289619 1775.55 9.5V9.5C1785.79 19.2896 1801.92 19.2896 1812.16 9.5V9.5C1822.4 -0.289619 1838.53 -0.289619 1848.77 9.5V9.5C1859.01 19.2896 1875.14 19.2896 1885.38 9.5V9.5C1895.62 -0.289619 1911.75 -0.289619 1921.99 9.5V9.5C1932.23 19.2896 1948.36 19.2896 1958.6 9.5V9.5C1968.84 -0.289619 1984.97 -0.289619 1995.21 9.5V9.5C2005.45 19.2896 2021.58 19.2896 2031.82 9.5V9.5C2042.06 -0.289619 2058.19 -0.289619 2068.43 9.5V9.5C2078.67 19.2896 2094.8 19.2896 2105.04 9.5V9.5C2115.28 -0.289619 2131.41 -0.289619 2141.65 9.5V9.5C2151.89 19.2896 2168.02 19.2896 2178.26 9.5V9.5C2188.5 -0.289619 2204.63 -0.289619 2214.87 9.5V9.5C2225.11 19.2896 2241.24 19.2896 2251.48 9.5V9.5C2261.72 -0.289619 2277.85 -0.289613 2288.09 9.50001L2290.23 11.5512C2299.79 20.6928 2314.26 22.3779 2325.67 15.6788L2343 5.5Z" fill="#D9D9D9"/>
</svg>
