<svg width="58" height="58" viewBox="0 0 58 58" fill="none" xmlns="http://www.w3.org/2000/svg">
<path d="M26.4066 1.53022C28.1818 0.574854 30.3182 0.574853 32.0934 1.53022L32.8865 1.95703C33.9417 2.5249 35.1427 2.7638 36.3349 2.64296L37.231 2.55214C39.2366 2.34885 41.2104 3.16639 42.4849 4.72838L43.0542 5.4262C43.8118 6.35464 44.83 7.03499 45.9777 7.37958L46.8403 7.63857C48.7711 8.2183 50.2817 9.72892 50.8614 11.6597L51.1204 12.5223C51.465 13.67 52.1454 14.6882 53.0738 15.4458L53.7716 16.0151C55.3336 17.2896 56.1512 19.2634 55.9479 21.269L55.857 22.1651C55.7362 23.3573 55.9751 24.5583 56.543 25.6135L56.9698 26.4066C57.9251 28.1818 57.9251 30.3182 56.9698 32.0934L56.543 32.8865C55.9751 33.9417 55.7362 35.1427 55.857 36.3349L55.9479 37.231C56.1512 39.2366 55.3336 41.2104 53.7716 42.4849L53.0738 43.0542C52.1454 43.8118 51.465 44.83 51.1204 45.9777L50.8614 46.8403C50.2817 48.7711 48.7711 50.2817 46.8403 50.8614L45.9777 51.1204C44.83 51.465 43.8118 52.1454 43.0542 53.0738L42.4849 53.7716C41.2104 55.3336 39.2366 56.1512 37.231 55.9479L36.3349 55.857C35.1427 55.7362 33.9417 55.9751 32.8865 56.543L32.0934 56.9698C30.3182 57.9251 28.1818 57.9251 26.4066 56.9698L25.6135 56.543C24.5583 55.9751 23.3573 55.7362 22.1651 55.857L21.269 55.9479C19.2634 56.1512 17.2896 55.3336 16.0151 53.7716L15.4458 53.0738C14.6882 52.1454 13.67 51.465 12.5223 51.1204L11.6597 50.8614C9.72892 50.2817 8.2183 48.7711 7.63857 46.8403L7.37958 45.9777C7.03499 44.83 6.35464 43.8118 5.4262 43.0542L4.72838 42.4849C3.16639 41.2104 2.34885 39.2366 2.55214 37.231L2.64296 36.3349C2.7638 35.1427 2.5249 33.9417 1.95703 32.8865L1.53022 32.0934C0.574854 30.3182 0.574853 28.1818 1.53022 26.4066L1.95703 25.6135C2.5249 24.5583 2.7638 23.3573 2.64296 22.1651L2.55214 21.269C2.34885 19.2634 3.16639 17.2896 4.72838 16.0152L5.4262 15.4458C6.35464 14.6882 7.03499 13.67 7.37958 12.5223L7.63857 11.6597C8.2183 9.72892 9.72892 8.2183 11.6597 7.63857L12.5223 7.37958C13.67 7.03499 14.6882 6.35464 15.4458 5.4262L16.0151 4.72838C17.2896 3.16639 19.2634 2.34885 21.269 2.55214L22.1651 2.64296C23.3573 2.7638 24.5583 2.5249 25.6135 1.95703L26.4066 1.53022Z" fill="#F7EFF4"/>
</svg>
